<?xml version="1.0" encoding="iso-8859-1"?>
<!-- Uploaded to: SVG Repo, www.svgrepo.com, Generator: SVG Repo Mixer Tools -->
<svg version="1.1" id="Layer_1" xmlns="http://www.w3.org/2000/svg" xmlns:xlink="http://www.w3.org/1999/xlink" 
	 viewBox="0 0 392.342 392.342" xml:space="preserve">
<g>
	<path style="fill:#4D4D4D;" d="M313.686,325.107v67.235H78.656v-67.235c0,0,0.16-27.995,0.46-30.855c1.17-11,4.54-21.33,9.66-30.57
		c11.49-20.72,31.78-35.88,55.83-40.43c4.91-0.93,9.99-1.42,15.17-1.42h72.79c5.18,0,10.26,0.49,15.17,1.42
		c24.05,4.55,44.34,19.71,55.83,40.43c5.171,9.331,8.555,19.779,9.694,30.898C313.542,297.332,313.686,325.107,313.686,325.107z"/>
	<path style="fill:#F75763;" d="M303.566,263.682c-11.49-20.72-31.78-35.88-55.83-40.43c-4.91-0.93-9.99-1.42-15.17-1.42h-72.79
		c-5.18,0-10.26,0.49-15.17,1.42c-24.05,4.55-44.34,19.71-55.83,40.43c28.901,20.977,64.188,33.699,102.395,34.724v93.936h10
		v-93.935C239.373,297.383,274.662,284.66,303.566,263.682z"/>
	<path style="fill:#4D4D4D;" d="M297.666,101.502v1.11c0,51.15-15.28,100.99-43.66,143.19c-0.04,0.06-0.07,0.11-0.11,0.16
		c-7.63,11.28-20.39,18.01-34.01,18.01h-47.41c-13.38,0-25.95-6.51-33.63-17.47c-0.7-1-1.33-1.91-1.83-2.68
		c-13.77-20.9-24.36-43.61-31.5-67.4c-7.15-23.78-10.85-48.64-10.85-73.81c0-4.46,0.28-8.85,0.84-13.17
		c0.937-7.365,12.211-37.87,17.26-45.21c11.78-17.19,28.63-30.62,48.45-37.98c10.02-3.72,58.14-4.38,69.91-0.05
		c19.88,7.32,36.86,20.69,48.69,37.87c4.927,7.152,16.222,37.717,17.13,45.37C297.426,93.392,297.666,97.422,297.666,101.502z"/>
	<path style="fill:#73CDE5;" d="M271.916,118.442v35.83c0,40.75-31.89,74.54-72.21,76.39c-1.06,0.05-2.13,0.08-3.2,0.08
		c-0.93,0-1.87-0.01-2.8-0.04c-40.97-1.14-73.27-35.41-73.27-76.4l-0.01-35.86c25.53,9.65,52.44,14.25,79.28,13.81
		C224.196,131.852,248.626,127.242,271.916,118.442z"/>
	<path style="opacity:0.26;fill:#FFFFFF;enable-background:new    ;" d="M271.916,118.442v35.83c0,40.75-31.89,74.54-72.21,76.39
		v-98.41C224.196,131.852,248.626,127.242,271.916,118.442z"/>
	<path style="fill:#F75763;" d="M231.126,6.202l-10.368,87.394c-1.478,12.461-12.043,21.846-24.591,21.846l0,0
		c-12.549,0-23.114-9.386-24.591-21.847l-10.36-87.343c10.02-3.72,20.78-5.89,32.03-6.21C206.576-0.338,219.356,1.872,231.126,6.202
		z"/>
	<g>
		<path style="fill:#F75763;" d="M296.946,89.442h-40.108c-7.827,0-14.172-6.345-14.172-14.172l0,0
			c0-4.872,2.502-9.402,6.626-11.996l30.524-19.202C288.916,57.282,294.966,72.752,296.946,89.442z"/>
		<path style="fill:#F75763;" d="M149.666,75.27L149.666,75.27c0,7.827-6.345,14.172-14.172,14.172H95.506
			c2.11-16.59,8.18-32.01,17.26-45.21l30.274,19.042C147.164,65.868,149.666,70.398,149.666,75.27z"/>
	</g>
	<g>
		<rect x="120.421" y="327.292" style="fill:#333333;" width="6" height="65.05"/>
		<rect x="265.921" y="327.292" style="fill:#333333;" width="6" height="65.05"/>
	</g>
	<rect x="271.921" y="348.292" style="fill:#F75763;" width="41.765" height="22.55"/>
	<rect x="78.656" y="348.292" style="fill:#F75763;" width="41.765" height="22.55"/>
	<path style="fill:#F75763;" d="M94.206,309.792c0,8.59-6.96,15.55-15.55,15.55v-22.39c0-2.94,0.16-5.84,0.46-8.7
		C87.496,294.492,94.206,301.352,94.206,309.792z"/>
	<path style="fill:#F75763;" d="M298.136,309.792c0,8.59,6.96,15.55,15.55,15.55v-22.39c0-2.94-0.16-5.84-0.46-8.7
		C304.846,294.492,298.136,301.352,298.136,309.792z"/>
</g>
</svg>